<svg width="162" height="174" viewBox="0 0 162 174" fill="none" xmlns="http://www.w3.org/2000/svg">
<path d="M153.733 13.3343L153.144 12.4179C151.047 9.17304 149.664 7.02711 150.207 5.00508C150.652 3.34777 152.301 2.40296 153.958 2.8456C154.893 3.09566 155.675 3.7701 156.078 4.60791C156.847 4.0834 157.862 3.88896 158.798 4.13902C160.455 4.58166 161.409 6.22204 160.964 7.87935C160.42 9.90138 158.146 11.0701 154.703 12.8347L153.733 13.3343Z" fill="#FFC901"/>
<path opacity="0.5" d="M143.694 5.38173L143.399 4.9445C142.348 3.39624 141.656 2.37232 141.928 1.40752C142.151 0.616752 142.977 0.165944 143.807 0.377145C144.275 0.49646 144.667 0.818265 144.869 1.21802C145.254 0.967751 145.762 0.874976 146.231 0.994291C147.061 1.20549 147.539 1.98819 147.316 2.77896C147.044 3.74375 145.905 4.30138 144.18 5.14335L143.694 5.38173Z" fill="#FFC901"/>
<path d="M0.15194 30.1123C0.15194 28.1624 0.177264 26.2252 0.22791 24.3006C0.30388 22.376 0.341865 20.4261 0.341865 18.4509C0.341865 17.3113 0.278557 16.1718 0.15194 15.0322C0.0506467 13.8927 0 12.7531 0 11.6136C0 11.2591 0.101293 10.9552 0.30388 10.7019C0.531791 10.4487 0.823009 10.3221 1.17754 10.3221C1.7853 10.3221 2.24112 10.4487 2.545 10.7019C2.84888 10.9552 3.06413 11.2717 3.19074 11.6516C3.31736 12.0314 3.38067 12.4619 3.38067 12.9431C3.38067 13.4242 3.38067 13.8927 3.38067 14.3485C3.38067 14.4498 3.38067 14.703 3.38067 15.1082C3.40599 15.5134 3.43132 15.9565 3.45664 16.4377C3.48196 16.8935 3.49462 17.324 3.49462 17.7292C3.51995 18.1344 3.53261 18.3876 3.53261 18.4889V19.7424C3.53261 21.3884 3.50729 23.0218 3.45664 24.6425C3.40599 26.2632 3.38067 27.9092 3.38067 29.5805V31.1759C3.38067 31.3025 3.39333 31.4798 3.41865 31.7077C3.4693 31.9103 3.50729 32.0116 3.53261 32.0116H3.83649L12.8389 28.441C13.0415 28.2637 13.2188 28.1751 13.3707 28.1751C13.5227 28.1497 13.6999 28.1371 13.9025 28.1371C14.0291 28.1371 14.1937 28.1497 14.3963 28.1751C14.5989 28.1751 14.7888 28.2131 14.9661 28.289C15.1687 28.3397 15.3333 28.4283 15.4599 28.5549C15.6119 28.6562 15.6878 28.8208 15.6878 29.0487C15.6878 29.6312 15.3713 30.1376 14.7382 30.5681C13.9278 30.9986 13.0922 31.4038 12.2312 31.7836C11.3702 32.1382 10.4965 32.4294 9.61022 32.6573L9.42029 32.8092C8.20477 33.1385 7.06522 33.6196 6.00164 34.2527C4.96338 34.8858 3.87447 35.4682 2.73492 36H2.39306C1.70933 36 1.20286 35.7721 0.873656 35.3163C0.544452 34.8604 0.329204 34.3286 0.22791 33.7209C0.126617 33.0878 0.0886318 32.4421 0.113955 31.7836C0.139279 31.0999 0.15194 30.5428 0.15194 30.1123Z" fill="#FFC901"/>
<path d="M32.6671 25.2122C32.6165 25.6681 32.5532 26.0226 32.4772 26.2758C32.4266 26.5291 32.3253 26.757 32.1733 26.9595C32.0214 27.1621 31.8061 27.3774 31.5276 27.6053C31.249 27.8079 30.8692 28.1118 30.388 28.5169C29.9069 28.8968 29.3118 29.4033 28.6027 30.0363C27.8937 30.6694 27.0327 31.4924 26.0198 32.5054C25.6146 32.8852 25.1967 33.2777 24.7662 33.6829C24.3358 34.0881 23.8799 34.4553 23.3988 34.7845C22.943 35.0883 22.4618 35.3416 21.9554 35.5442C21.4489 35.7468 20.9171 35.848 20.36 35.848C19.2711 35.848 18.4734 35.4809 17.9669 34.7465C17.4605 34.0121 17.2072 33.1638 17.2072 32.2015C17.2072 31.5684 17.2199 31.0366 17.2452 30.6061C17.2959 30.1756 17.3972 29.6185 17.5491 28.9348C17.2705 28.6815 17.03 28.4663 16.8274 28.289C16.6248 28.0864 16.5235 27.8205 16.5235 27.4913C16.5235 27.1875 16.5868 26.9849 16.7134 26.8836C16.8654 26.7823 17.03 26.719 17.2072 26.6937C17.4098 26.643 17.5997 26.5924 17.777 26.5417C17.9543 26.4911 18.0809 26.3898 18.1569 26.2378C18.2075 26.0859 18.2961 25.8073 18.4227 25.4022C18.5747 24.997 18.7266 24.5792 18.8786 24.1487C19.0305 23.6928 19.1698 23.275 19.2964 22.8951C19.4483 22.49 19.5496 22.2114 19.6003 22.0595C19.7775 21.629 19.9675 21.1985 20.1701 20.768C20.398 20.3122 20.6512 19.907 20.9298 19.5525C21.2336 19.1979 21.5755 18.9067 21.9554 18.6788C22.3605 18.4509 22.829 18.3369 23.3608 18.3369C23.6647 18.3369 24.0319 18.4762 24.4624 18.7548C24.9182 19.0333 25.3487 19.3752 25.7539 19.7804C26.159 20.1602 26.5009 20.5654 26.7795 20.9959C27.058 21.4264 27.1973 21.7936 27.1973 22.0975C27.1973 22.4773 27.1087 22.8318 26.9314 23.161C26.7541 23.4649 26.5262 23.7561 26.2477 24.0347C25.9944 24.2879 25.7159 24.5285 25.412 24.7564C25.1081 24.9843 24.8296 25.1996 24.5763 25.4022C24.551 25.4022 24.5004 25.4275 24.4244 25.4781C24.3484 25.5288 24.2851 25.5668 24.2345 25.5921C24.2091 25.6174 24.1458 25.6807 24.0445 25.782C23.9686 25.858 23.8799 25.9466 23.7786 26.0479C23.6773 26.1492 23.5761 26.2505 23.4748 26.3518C23.3988 26.4531 23.3481 26.5164 23.3228 26.5417C23.2468 26.6177 23.0949 26.7443 22.867 26.9216C22.6644 27.0735 22.4365 27.2508 22.1833 27.4534C21.93 27.6306 21.6895 27.8079 21.4615 27.9851C21.259 28.1371 21.1197 28.2384 21.0437 28.289L20.8918 28.5929C20.8411 28.6942 20.7905 28.9221 20.7398 29.2766C20.7145 29.6058 20.6765 29.9857 20.6259 30.4162C20.5752 30.8467 20.5246 31.2898 20.4739 31.7457C20.4486 32.1762 20.436 32.5307 20.436 32.8092C20.436 32.8346 20.4486 32.8599 20.4739 32.8852C20.5246 32.9359 20.5626 32.9612 20.5879 32.9612C20.7905 32.9612 20.9804 32.8726 21.1577 32.6953C21.3349 32.518 21.5249 32.3914 21.7274 32.3154L27.8051 26.6937L29.3624 24.3006C29.4891 24.1233 29.7296 23.9334 30.0842 23.7308C30.464 23.5029 30.8439 23.389 31.2237 23.389C31.6036 23.3636 31.9328 23.4776 32.2113 23.7308C32.5152 23.9841 32.6671 24.4779 32.6671 25.2122ZM24.3104 22.2494C24.437 22.1481 24.4877 21.9962 24.4624 21.7936C24.437 21.591 24.3611 21.4137 24.2345 21.2618C24.1332 21.1099 23.9939 21.0212 23.8166 20.9959C23.6394 20.9452 23.4748 21.0339 23.3228 21.2618C23.2468 21.3631 23.1076 21.5657 22.905 21.8696C22.7277 22.1734 22.5378 22.49 22.3352 22.8192C22.1579 23.1231 22.006 23.389 21.8794 23.6169C21.7528 23.8448 21.7274 23.9334 21.8034 23.8828L24.3104 22.2494Z" fill="#FFC901"/>
<path d="M37.3393 24.9084C36.9848 24.9084 36.6682 24.997 36.3897 25.1743C36.1111 25.3515 35.7819 25.4401 35.4021 25.4401C35.3514 25.4401 35.2121 25.4401 34.9842 25.4401C34.7816 25.4148 34.655 25.4022 34.6044 25.4022C34.5031 25.2755 34.3891 25.1743 34.2625 25.0983C34.1359 25.0223 34.0093 24.9463 33.8827 24.8704C33.756 24.7691 33.6421 24.6551 33.5408 24.5285C33.4648 24.4019 33.4268 24.2246 33.4268 23.9967C33.4268 23.6169 33.5788 23.313 33.8827 23.0851C34.1865 22.8318 34.5411 22.6166 34.9462 22.4393C35.3514 22.2621 35.7566 22.0975 36.1618 21.9455C36.5923 21.7936 36.9341 21.6163 37.1874 21.4137V19.7424C37.1874 17.8685 37.0987 15.9945 36.9215 14.1206C36.7442 12.2214 36.6556 10.3474 36.6556 8.49882C36.6556 7.99235 36.7822 7.66315 37.0354 7.5112C37.2887 7.35926 37.6305 7.28329 38.061 7.28329C38.5675 7.28329 38.9347 7.43523 39.1626 7.73912C39.4158 8.01767 39.5931 8.3722 39.6944 8.8027C39.7957 9.20787 39.8463 9.65103 39.8463 10.1322C39.8463 10.588 39.859 10.9805 39.8843 11.3097C39.8843 11.6389 39.9096 12.2214 39.9603 13.057C40.0109 13.8927 40.0616 14.779 40.1122 15.716C40.1629 16.6529 40.2135 17.5393 40.2641 18.3749C40.3148 19.2106 40.3528 19.793 40.3781 20.1222C40.4794 20.0969 40.6693 20.0336 40.9479 19.9323C41.2518 19.8057 41.5683 19.6917 41.8975 19.5904C42.2267 19.4638 42.5306 19.3499 42.8091 19.2486C43.113 19.1473 43.3283 19.0713 43.4549 19.0207C44.1133 18.7421 44.797 18.4382 45.5061 18.109C46.2151 17.7545 46.9369 17.5772 47.6712 17.5772C48.1777 17.5772 48.5575 17.7545 48.8108 18.109C49.0893 18.4382 49.2286 18.8307 49.2286 19.2866C49.2286 19.6158 49.102 19.8563 48.8488 20.0083C48.5955 20.1602 48.3296 20.2995 48.0511 20.4261L41.1378 23.0091C41.0618 23.0598 40.9859 23.1104 40.9099 23.161C40.8339 23.1864 40.758 23.237 40.682 23.313V24.5285C40.682 25.4148 40.6946 26.3391 40.72 27.3014C40.7706 28.2384 40.8592 29.15 40.9859 30.0363C41.1125 30.796 41.2518 31.5431 41.4037 32.2775C41.5556 33.0118 41.6316 33.7589 41.6316 34.5186C41.6316 34.7465 41.5556 35.0504 41.4037 35.4302C41.2518 35.8101 41.0112 36 40.682 36C39.9983 36 39.4411 35.7974 39.0106 35.3922C38.5801 34.9871 38.3396 34.4426 38.2889 33.7589C38.1623 32.4421 38.023 30.9986 37.8711 29.4286C37.7445 27.8585 37.6179 26.3518 37.4912 24.9084H37.3393Z" fill="#FFC901"/>
<path d="M50.4441 16.8175C50.4441 16.6403 50.4568 16.3237 50.4821 15.8679C50.5328 15.4121 50.5708 14.931 50.5961 14.4245C50.6467 13.918 50.6847 13.4369 50.71 12.9811C50.7354 12.5252 50.748 12.196 50.748 11.9934C50.9253 11.3604 51.3305 11.0438 51.9635 11.0438C52.5207 11.0438 52.9132 11.2084 53.1411 11.5376C53.369 11.8415 53.4829 12.2467 53.4829 12.7531C53.4829 12.9051 53.4703 13.209 53.445 13.6648C53.445 14.0953 53.4196 14.6017 53.369 15.1842C53.3183 15.7413 53.255 16.3364 53.1791 16.9695C53.1284 17.5772 53.0524 18.1344 52.9512 18.6408C52.8499 19.1473 52.7232 19.5651 52.5713 19.8943C52.4194 20.2235 52.2548 20.3755 52.0775 20.3502C51.723 20.2995 51.4444 20.1729 51.2418 19.9703C51.0392 19.7424 50.8746 19.4892 50.748 19.2106C50.6214 18.932 50.5328 18.6408 50.4821 18.3369C50.4568 18.0077 50.4441 17.7039 50.4441 17.4253V16.8175Z" fill="#FFC901"/>
<path d="M61.08 34.5566C61.08 34.4299 61.08 34.316 61.08 34.2147C61.1053 34.1134 61.1686 34.0121 61.2699 33.9108C61.5738 33.531 61.9156 33.1384 62.2955 32.7333C62.6753 32.3028 63.0425 31.8849 63.397 31.4798C63.7516 31.0493 64.0808 30.6061 64.3847 30.1503C64.6885 29.6945 64.9418 29.2387 65.1444 28.7828V28.5549L60.1683 29.5805H59.5985C59.244 29.5805 58.8009 29.5552 58.2691 29.5045C57.7626 29.4539 57.2561 29.3526 56.7497 29.2007C56.2685 29.0234 55.8507 28.7828 55.4962 28.479C55.1669 28.1751 55.0023 27.7699 55.0023 27.2634C55.0277 26.681 55.3316 26.0352 55.914 25.3262C56.4964 24.6171 57.1802 23.9207 57.9652 23.237C58.7502 22.5533 59.5352 21.9202 60.3203 21.3378C61.1306 20.7553 61.7763 20.2995 62.2575 19.9703C62.7893 19.6664 63.4224 19.4258 64.1567 19.2486C64.8911 19.046 65.5622 18.9447 66.17 18.9447C66.6764 18.9447 67.1196 19.046 67.4994 19.2486C67.8793 19.4258 68.0692 19.793 68.0692 20.3502C68.0692 20.5781 68.0439 20.7933 67.9932 20.9959C67.9679 21.1985 67.816 21.3378 67.5374 21.4137C66.7271 21.3378 65.9674 21.4011 65.2583 21.6037C64.5493 21.7809 63.8782 22.0595 63.2451 22.4393C62.612 22.8192 62.0169 23.275 61.4598 23.8068C60.9027 24.3133 60.3582 24.845 59.8264 25.4022C59.6745 25.5794 59.4846 25.8327 59.2567 26.1619C59.0288 26.4657 58.9148 26.643 58.9148 26.6937V26.7316C59.5732 26.7316 60.219 26.6683 60.852 26.5417C61.5105 26.4151 62.1562 26.2885 62.7893 26.1619C63.4477 26.0099 64.0934 25.8706 64.7265 25.744C65.3849 25.6174 66.056 25.5541 66.7397 25.5541C66.993 25.5541 67.2715 25.5794 67.5754 25.6301C67.8793 25.6554 68.1578 25.7314 68.4111 25.858C68.6896 25.9846 68.9049 26.1619 69.0568 26.3898C69.2341 26.5924 69.3227 26.8583 69.3227 27.1875C69.3227 27.6686 69.1961 28.1371 68.9429 28.5929C68.7149 29.0234 68.3604 29.5552 67.8793 30.1883C67.4235 30.796 66.8284 31.5431 66.094 32.4294C65.3849 33.3157 64.5366 34.4553 63.549 35.848C63.4983 35.924 63.3717 35.9747 63.1691 36C62.9919 36.0253 62.8399 36.038 62.7133 36.038C62.3588 36.038 61.9916 35.886 61.6117 35.5822C61.2572 35.2783 61.08 34.9364 61.08 34.5566Z" fill="#FFC901"/>
<path d="M86.5679 30.1883C86.8718 27.6559 87.1124 25.706 87.2896 24.3386C87.4669 22.9711 87.5935 21.9582 87.6695 21.2998C87.7708 20.5401 87.8214 20.0969 87.8214 19.9703C88.0493 19.1853 88.2899 18.3369 88.5431 17.4253C88.7964 16.5137 89.1256 15.6653 89.5308 14.8803C89.9613 14.0953 90.5057 13.4369 91.1641 12.9051C91.8225 12.3733 92.6708 12.1074 93.7091 12.1074C94.1649 12.1074 94.5701 12.1454 94.9246 12.2214C95.3045 12.272 95.659 12.3733 95.9882 12.5252C96.3174 12.6772 96.634 12.8671 96.9378 13.095C97.267 13.2976 97.6089 13.5508 97.9634 13.8547C98.2167 14.0826 98.3559 14.2219 98.3813 14.2725C98.4319 14.3232 98.4572 14.4751 98.4572 14.7284C98.4572 15.0576 98.3433 15.3741 98.1154 15.678C97.8875 15.9819 97.5583 16.1338 97.1278 16.1338C96.7732 16.1338 96.482 16.0578 96.2541 15.9059C96.0262 15.7286 95.7983 15.5387 95.5704 15.3361C95.3678 15.1082 95.1399 14.9183 94.8866 14.7663C94.6587 14.5891 94.3549 14.5005 93.975 14.5005C93.5698 14.5005 93.2153 14.6144 92.9114 14.8423C92.6075 15.0449 92.3416 15.3108 92.1137 15.64C91.9111 15.9692 91.7465 16.3364 91.6199 16.7416C91.5186 17.1467 91.4427 17.5266 91.392 17.8811L89.6067 30.0363C89.6067 30.087 89.5941 30.2136 89.5687 30.4162C89.5687 30.5935 89.5687 30.7327 89.5687 30.834C89.5687 31.0113 89.5687 31.2392 89.5687 31.5178C89.5687 31.771 89.5941 32.0369 89.6447 32.3154C89.6954 32.5687 89.784 32.7966 89.9106 32.9992C90.0372 33.1764 90.2271 33.2651 90.4804 33.2651C90.6323 33.2651 90.7716 33.2144 90.8982 33.1131C92.1137 32.3028 93.152 31.3658 94.013 30.3022C94.8993 29.2133 95.735 28.0611 96.52 26.8456C96.5453 26.7949 96.6086 26.681 96.7099 26.5037C96.8365 26.3011 96.9505 26.0986 97.0518 25.896C97.1784 25.6681 97.2924 25.4528 97.3937 25.2502C97.4949 25.0223 97.5709 24.8577 97.6216 24.7564C97.7735 24.4272 97.8875 24.0853 97.9634 23.7308C98.0394 23.3763 98.128 23.0471 98.2293 22.7432C98.3559 22.4393 98.5332 22.1988 98.7611 22.0215C98.989 21.8189 99.3436 21.7176 99.8247 21.7176C100.179 21.7176 100.521 21.8696 100.85 22.1734C101.179 22.4773 101.344 22.8318 101.344 23.237V23.313C100.711 25.1363 99.888 26.8203 98.8751 28.365C97.8875 29.9097 96.7859 31.4418 95.5704 32.9612C94.8107 33.8728 93.937 34.6072 92.9494 35.1643C91.9618 35.7214 90.8602 36 89.6447 36H89.4548C88.3152 35.5695 87.5429 34.9364 87.1377 34.1007C86.7578 33.2397 86.5679 32.2395 86.5679 31.0999V30.1883Z" fill="#FFC901"/>
<path d="M103.509 17.4253C103.56 15.9059 103.497 14.3865 103.319 12.8671C103.142 11.3477 103.053 9.84095 103.053 8.34688C103.053 7.86573 103.193 7.57451 103.471 7.47322C103.75 7.3466 104.066 7.28329 104.421 7.28329C104.927 7.28329 105.345 7.42257 105.674 7.70113C106.004 7.97969 106.194 8.3722 106.244 8.87867C106.472 11.6389 106.599 14.3738 106.624 17.0834C106.675 19.7677 106.865 22.49 107.194 25.2502C107.954 23.8068 108.739 22.6166 109.549 21.6796C110.359 20.7427 111.132 20.1222 111.866 19.8184C112.626 19.5145 113.309 19.5778 113.917 20.0083C114.55 20.4135 115.057 21.2365 115.437 22.4773C115.816 23.6928 116.044 25.3642 116.12 27.4913C116.196 29.5932 116.07 32.2141 115.74 35.3542C115.563 35.3542 115.348 35.3669 115.095 35.3922C114.841 35.3922 114.588 35.3796 114.335 35.3542C114.107 35.3289 113.904 35.2783 113.727 35.2023C113.55 35.1263 113.449 34.9871 113.423 34.7845C113.626 32.8852 113.74 31.2898 113.765 29.9984C113.791 28.7069 113.753 27.6433 113.651 26.8076C113.55 25.9719 113.411 25.3389 113.233 24.9084C113.056 24.4525 112.866 24.1233 112.664 23.9207C112.461 23.7182 112.258 23.6169 112.056 23.6169C111.879 23.5915 111.739 23.5915 111.638 23.6169C111.081 23.8195 110.549 24.3133 110.043 25.0983C109.562 25.8833 109.144 26.7949 108.789 27.8332C108.435 28.8715 108.169 29.973 107.991 31.1379C107.84 32.2775 107.802 33.3031 107.878 34.2147C107.852 34.4173 107.827 34.6199 107.802 34.8225C107.776 35.025 107.726 35.215 107.65 35.3922C107.599 35.5695 107.498 35.7214 107.346 35.848C107.219 35.9493 107.017 36 106.738 36C106.206 36 105.776 35.9114 105.446 35.7341C105.143 35.5315 104.902 35.2783 104.725 34.9744C104.573 34.6705 104.472 34.316 104.421 33.9108C104.396 33.5056 104.408 33.0878 104.459 32.6573L103.509 17.4253Z" fill="#FFC901"/>
<path d="M126.528 25.4022C126.3 25.8073 126.034 26.3011 125.731 26.8836C125.452 27.4407 125.148 28.0485 124.819 28.7069C124.49 29.3399 124.122 29.9857 123.717 30.6441C123.337 31.2772 122.932 31.8596 122.502 32.3914C122.097 32.9232 121.666 33.379 121.21 33.7589C120.754 34.1134 120.286 34.3286 119.805 34.4046C119.602 34.4046 119.374 34.392 119.121 34.3666C118.868 34.316 118.615 34.2527 118.361 34.1767C118.108 34.0754 117.893 33.9488 117.716 33.7969C117.564 33.6196 117.488 33.3917 117.488 33.1131C117.513 30.5301 117.703 28.1877 118.058 26.0859C118.412 23.9587 118.969 22.0975 119.729 20.5021C120.489 18.8814 121.464 17.5393 122.654 16.4757C123.844 15.4121 125.287 14.6524 126.984 14.1966C127.035 14.1966 127.123 14.1966 127.25 14.1966C127.402 14.1712 127.503 14.1586 127.554 14.1586C128.313 14.1333 128.858 14.4878 129.187 15.2222C129.542 15.9312 129.795 17.0708 129.947 18.6408C130.124 20.1855 130.238 22.1861 130.289 24.6425C130.365 27.0735 130.504 29.9984 130.707 33.417C130.783 33.6956 130.82 33.9361 130.82 34.1387C130.846 34.3413 130.858 34.5819 130.858 34.8604C130.858 35.2403 130.745 35.5315 130.517 35.7341C130.289 35.9114 129.997 36 129.643 36C128.909 36 128.389 35.7974 128.086 35.3922C127.782 34.9871 127.579 34.4426 127.478 33.7589C127.478 33.7335 127.452 33.531 127.402 33.1511C127.377 32.7713 127.326 32.3408 127.25 31.8596C127.199 31.3532 127.149 30.8467 127.098 30.3402C127.047 29.8337 127.009 29.4159 126.984 29.0867V28.9348C126.933 28.6815 126.895 28.365 126.87 27.9851C126.87 27.6053 126.845 27.2381 126.794 26.8836C126.743 26.4531 126.705 26.0226 126.68 25.5921L126.528 25.4022ZM125.693 17.8811C125.009 18.3876 124.338 19.0713 123.679 19.9323C123.021 20.7933 122.552 21.629 122.274 22.4393C122.147 22.8192 122.008 23.3383 121.856 23.9967C121.704 24.6551 121.565 25.3135 121.438 25.9719C121.337 26.605 121.248 27.2001 121.172 27.7572C121.096 28.289 121.058 28.6309 121.058 28.7828C121.084 28.7828 121.109 28.7575 121.134 28.7069C121.185 28.6562 121.223 28.6182 121.248 28.5929C122.818 27.0735 123.92 25.4401 124.553 23.6928C125.211 21.9202 125.591 19.983 125.693 17.8811Z" fill="#FFC901"/>
<path d="M136.48 24.9084C136.126 24.9084 135.809 24.997 135.531 25.1743C135.252 25.3515 134.923 25.4401 134.543 25.4401C134.492 25.4401 134.353 25.4401 134.125 25.4401C133.923 25.4148 133.796 25.4022 133.745 25.4022C133.644 25.2755 133.53 25.1743 133.403 25.0983C133.277 25.0223 133.15 24.9463 133.024 24.8704C132.897 24.7691 132.783 24.6551 132.682 24.5285C132.606 24.4019 132.568 24.2246 132.568 23.9967C132.568 23.6169 132.72 23.313 133.024 23.0851C133.328 22.8318 133.682 22.6166 134.087 22.4393C134.492 22.2621 134.898 22.0975 135.303 21.9455C135.733 21.7936 136.075 21.6163 136.328 21.4137V19.7424C136.328 17.8685 136.24 15.9945 136.062 14.1206C135.885 12.2214 135.797 10.3474 135.797 8.49882C135.797 7.99235 135.923 7.66315 136.176 7.5112C136.43 7.35926 136.771 7.28329 137.202 7.28329C137.708 7.28329 138.076 7.43523 138.304 7.73912C138.557 8.01767 138.734 8.3722 138.835 8.8027C138.937 9.20787 138.987 9.65103 138.987 10.1322C138.987 10.588 139 10.9805 139.025 11.3097C139.025 11.6389 139.051 12.2214 139.101 13.057C139.152 13.8927 139.203 14.779 139.253 15.716C139.304 16.6529 139.354 17.5393 139.405 18.3749C139.456 19.2106 139.494 19.793 139.519 20.1222C139.62 20.0969 139.81 20.0336 140.089 19.9323C140.393 19.8057 140.709 19.6917 141.038 19.5904C141.368 19.4638 141.672 19.3499 141.95 19.2486C142.254 19.1473 142.469 19.0713 142.596 19.0207C143.254 18.7421 143.938 18.4382 144.647 18.109C145.356 17.7545 146.078 17.5772 146.812 17.5772C147.319 17.5772 147.699 17.7545 147.952 18.109C148.23 18.4382 148.37 18.8307 148.37 19.2866C148.37 19.6158 148.243 19.8563 147.99 20.0083C147.737 20.1602 147.471 20.2995 147.192 20.4261L140.279 23.0091C140.203 23.0598 140.127 23.1104 140.051 23.161C139.975 23.1864 139.899 23.237 139.823 23.313V24.5285C139.823 25.4148 139.836 26.3391 139.861 27.3014C139.912 28.2384 140 29.15 140.127 30.0363C140.253 30.796 140.393 31.5431 140.545 32.2775C140.697 33.0118 140.773 33.7589 140.773 34.5186C140.773 34.7465 140.697 35.0504 140.545 35.4302C140.393 35.8101 140.152 36 139.823 36C139.139 36 138.582 35.7974 138.152 35.3922C137.721 34.9871 137.481 34.4426 137.43 33.7589C137.303 32.4421 137.164 30.9986 137.012 29.4286C136.885 27.8585 136.759 26.3518 136.632 24.9084H136.48Z" fill="#FFC901"/>
<g filter="url(#filter0_ii_220_58)">
<path fill-rule="evenodd" clip-rule="evenodd" d="M105.966 147.17C105.75 146.216 105.604 145.202 105.933 144.281C107.514 139.849 108.375 135.075 108.375 130.1C108.375 106.801 89.487 87.913 66.1875 87.913C42.888 87.913 24 106.801 24 130.1C24 153.4 42.888 172.288 66.1875 172.288C72.2072 172.288 77.9324 171.027 83.1135 168.755C84.6111 168.099 86.2919 167.932 87.8535 168.417L104.718 173.653C108.18 174.728 111.516 171.693 110.723 168.189L105.966 147.17Z" fill="#F3F3F3"/>
</g>
<g filter="url(#filter1_ii_220_58)">
<circle cx="44.3125" cy="130.1" r="4.6875" fill="#FFC901"/>
</g>
<g filter="url(#filter2_ii_220_58)">
<circle cx="63.0625" cy="130.1" r="4.6875" fill="#FFC901"/>
</g>
<g filter="url(#filter3_ii_220_58)">
<circle cx="81.8125" cy="130.1" r="4.6875" fill="#FFC901"/>
</g>
<g filter="url(#filter4_ii_220_58)">
<path fill-rule="evenodd" clip-rule="evenodd" d="M73.5777 101.399C73.6719 100.725 73.7615 100.026 73.5625 99.3755C72.8311 96.9858 72.4375 94.4485 72.4375 91.8192C72.4375 77.5806 83.9802 66.038 98.2188 66.038C112.457 66.038 124 77.5806 124 91.8192C124 106.058 112.457 117.6 98.2188 117.6C93.826 117.6 89.6898 116.502 86.07 114.564C84.1744 113.55 81.9323 113.224 79.9393 114.031L76.3275 115.493C74.1031 116.394 71.7401 114.534 72.0742 112.145L73.5777 101.399Z" fill="#FFC901"/>
</g>
<g filter="url(#filter5_dii_220_58)">
<circle cx="83.375" cy="92.6005" r="3.125" fill="#F3F3F3"/>
</g>
<g filter="url(#filter6_dii_220_58)">
<circle cx="97.4375" cy="92.6005" r="3.125" fill="#F3F3F3"/>
</g>
<g filter="url(#filter7_dii_220_58)">
<circle cx="111.5" cy="92.6005" r="3.125" fill="#F3F3F3"/>
</g>
<defs>
<filter id="filter0_ii_220_58" x="19.3311" y="83.244" width="93.8447" height="92.9634" filterUnits="userSpaceOnUse" color-interpolation-filters="sRGB">
<feFlood flood-opacity="0" result="BackgroundImageFix"/>
<feBlend mode="normal" in="SourceGraphic" in2="BackgroundImageFix" result="shape"/>
<feColorMatrix in="SourceAlpha" type="matrix" values="0 0 0 0 0 0 0 0 0 0 0 0 0 0 0 0 0 0 127 0" result="hardAlpha"/>
<feOffset dx="-4.66893" dy="-4.66893"/>
<feGaussianBlur stdDeviation="2.33447"/>
<feComposite in2="hardAlpha" operator="arithmetic" k2="-1" k3="1"/>
<feColorMatrix type="matrix" values="0 0 0 0 0.359191 0 0 0 0 0.655925 0 0 0 0 0.870801 0 0 0 0.17 0"/>
<feBlend mode="normal" in2="shape" result="effect1_innerShadow_220_58"/>
<feColorMatrix in="SourceAlpha" type="matrix" values="0 0 0 0 0 0 0 0 0 0 0 0 0 0 0 0 0 0 127 0" result="hardAlpha"/>
<feOffset dx="2.33447" dy="2.33447"/>
<feGaussianBlur stdDeviation="1.75085"/>
<feComposite in2="hardAlpha" operator="arithmetic" k2="-1" k3="1"/>
<feColorMatrix type="matrix" values="0 0 0 0 0.979145 0 0 0 0 0.99749 0 0 0 0 1 0 0 0 0.65 0"/>
<feBlend mode="normal" in2="effect1_innerShadow_220_58" result="effect2_innerShadow_220_58"/>
</filter>
<filter id="filter1_ii_220_58" x="34.9375" y="120.725" width="17.1875" height="17.1875" filterUnits="userSpaceOnUse" color-interpolation-filters="sRGB">
<feFlood flood-opacity="0" result="BackgroundImageFix"/>
<feBlend mode="normal" in="SourceGraphic" in2="BackgroundImageFix" result="shape"/>
<feColorMatrix in="SourceAlpha" type="matrix" values="0 0 0 0 0 0 0 0 0 0 0 0 0 0 0 0 0 0 127 0" result="hardAlpha"/>
<feOffset dx="-4.6875" dy="-4.6875"/>
<feGaussianBlur stdDeviation="4.6875"/>
<feComposite in2="hardAlpha" operator="arithmetic" k2="-1" k3="1"/>
<feColorMatrix type="matrix" values="0 0 0 0 0.870588 0 0 0 0 0.666667 0 0 0 0 0.360784 0 0 0 0.82 0"/>
<feBlend mode="normal" in2="shape" result="effect1_innerShadow_220_58"/>
<feColorMatrix in="SourceAlpha" type="matrix" values="0 0 0 0 0 0 0 0 0 0 0 0 0 0 0 0 0 0 127 0" result="hardAlpha"/>
<feOffset dx="3.125" dy="3.125"/>
<feGaussianBlur stdDeviation="3.125"/>
<feComposite in2="hardAlpha" operator="arithmetic" k2="-1" k3="1"/>
<feColorMatrix type="matrix" values="0 0 0 0 1 0 0 0 0 0.941176 0 0 0 0 0.643137 0 0 0 0.65 0"/>
<feBlend mode="normal" in2="effect1_innerShadow_220_58" result="effect2_innerShadow_220_58"/>
</filter>
<filter id="filter2_ii_220_58" x="53.6875" y="120.725" width="17.1875" height="17.1875" filterUnits="userSpaceOnUse" color-interpolation-filters="sRGB">
<feFlood flood-opacity="0" result="BackgroundImageFix"/>
<feBlend mode="normal" in="SourceGraphic" in2="BackgroundImageFix" result="shape"/>
<feColorMatrix in="SourceAlpha" type="matrix" values="0 0 0 0 0 0 0 0 0 0 0 0 0 0 0 0 0 0 127 0" result="hardAlpha"/>
<feOffset dx="-4.6875" dy="-4.6875"/>
<feGaussianBlur stdDeviation="4.6875"/>
<feComposite in2="hardAlpha" operator="arithmetic" k2="-1" k3="1"/>
<feColorMatrix type="matrix" values="0 0 0 0 0.870588 0 0 0 0 0.666667 0 0 0 0 0.360784 0 0 0 0.82 0"/>
<feBlend mode="normal" in2="shape" result="effect1_innerShadow_220_58"/>
<feColorMatrix in="SourceAlpha" type="matrix" values="0 0 0 0 0 0 0 0 0 0 0 0 0 0 0 0 0 0 127 0" result="hardAlpha"/>
<feOffset dx="3.125" dy="3.125"/>
<feGaussianBlur stdDeviation="3.125"/>
<feComposite in2="hardAlpha" operator="arithmetic" k2="-1" k3="1"/>
<feColorMatrix type="matrix" values="0 0 0 0 1 0 0 0 0 0.941176 0 0 0 0 0.643137 0 0 0 0.65 0"/>
<feBlend mode="normal" in2="effect1_innerShadow_220_58" result="effect2_innerShadow_220_58"/>
</filter>
<filter id="filter3_ii_220_58" x="72.4375" y="120.725" width="17.1875" height="17.1875" filterUnits="userSpaceOnUse" color-interpolation-filters="sRGB">
<feFlood flood-opacity="0" result="BackgroundImageFix"/>
<feBlend mode="normal" in="SourceGraphic" in2="BackgroundImageFix" result="shape"/>
<feColorMatrix in="SourceAlpha" type="matrix" values="0 0 0 0 0 0 0 0 0 0 0 0 0 0 0 0 0 0 127 0" result="hardAlpha"/>
<feOffset dx="-4.6875" dy="-4.6875"/>
<feGaussianBlur stdDeviation="4.6875"/>
<feComposite in2="hardAlpha" operator="arithmetic" k2="-1" k3="1"/>
<feColorMatrix type="matrix" values="0 0 0 0 0.870588 0 0 0 0 0.666667 0 0 0 0 0.360784 0 0 0 0.82 0"/>
<feBlend mode="normal" in2="shape" result="effect1_innerShadow_220_58"/>
<feColorMatrix in="SourceAlpha" type="matrix" values="0 0 0 0 0 0 0 0 0 0 0 0 0 0 0 0 0 0 127 0" result="hardAlpha"/>
<feOffset dx="3.125" dy="3.125"/>
<feGaussianBlur stdDeviation="3.125"/>
<feComposite in2="hardAlpha" operator="arithmetic" k2="-1" k3="1"/>
<feColorMatrix type="matrix" values="0 0 0 0 1 0 0 0 0 0.941176 0 0 0 0 0.643137 0 0 0 0.65 0"/>
<feBlend mode="normal" in2="effect1_innerShadow_220_58" result="effect2_innerShadow_220_58"/>
</filter>
<filter id="filter4_ii_220_58" x="65.7925" y="59.788" width="61.3325" height="60.9375" filterUnits="userSpaceOnUse" color-interpolation-filters="sRGB">
<feFlood flood-opacity="0" result="BackgroundImageFix"/>
<feBlend mode="normal" in="SourceGraphic" in2="BackgroundImageFix" result="shape"/>
<feColorMatrix in="SourceAlpha" type="matrix" values="0 0 0 0 0 0 0 0 0 0 0 0 0 0 0 0 0 0 127 0" result="hardAlpha"/>
<feOffset dx="-6.25" dy="-6.25"/>
<feGaussianBlur stdDeviation="4.6875"/>
<feComposite in2="hardAlpha" operator="arithmetic" k2="-1" k3="1"/>
<feColorMatrix type="matrix" values="0 0 0 0 0.870588 0 0 0 0 0.666667 0 0 0 0 0.360784 0 0 0 0.82 0"/>
<feBlend mode="normal" in2="shape" result="effect1_innerShadow_220_58"/>
<feColorMatrix in="SourceAlpha" type="matrix" values="0 0 0 0 0 0 0 0 0 0 0 0 0 0 0 0 0 0 127 0" result="hardAlpha"/>
<feOffset dx="3.125" dy="3.125"/>
<feGaussianBlur stdDeviation="3.125"/>
<feComposite in2="hardAlpha" operator="arithmetic" k2="-1" k3="1"/>
<feColorMatrix type="matrix" values="0 0 0 0 1 0 0 0 0 0.941176 0 0 0 0 0.643137 0 0 0 0.65 0"/>
<feBlend mode="normal" in2="effect1_innerShadow_220_58" result="effect2_innerShadow_220_58"/>
</filter>
<filter id="filter5_dii_220_58" x="78.5572" y="88.0112" width="9.63551" height="9.97126" filterUnits="userSpaceOnUse" color-interpolation-filters="sRGB">
<feFlood flood-opacity="0" result="BackgroundImageFix"/>
<feColorMatrix in="SourceAlpha" type="matrix" values="0 0 0 0 0 0 0 0 0 0 0 0 0 0 0 0 0 0 127 0" result="hardAlpha"/>
<feOffset dy="0.564251"/>
<feGaussianBlur stdDeviation="0.846377"/>
<feComposite in2="hardAlpha" operator="out"/>
<feColorMatrix type="matrix" values="0 0 0 0 0.710026 0 0 0 0 0.71778 0 0 0 0 0.758485 0 0 0 0.25 0"/>
<feBlend mode="normal" in2="BackgroundImageFix" result="effect1_dropShadow_220_58"/>
<feBlend mode="normal" in="SourceGraphic" in2="effect1_dropShadow_220_58" result="shape"/>
<feColorMatrix in="SourceAlpha" type="matrix" values="0 0 0 0 0 0 0 0 0 0 0 0 0 0 0 0 0 0 127 0" result="hardAlpha"/>
<feOffset dx="-1.46426" dy="-1.46426"/>
<feGaussianBlur stdDeviation="0.732128"/>
<feComposite in2="hardAlpha" operator="arithmetic" k2="-1" k3="1"/>
<feColorMatrix type="matrix" values="0 0 0 0 0.359191 0 0 0 0 0.655925 0 0 0 0 0.870801 0 0 0 0.17 0"/>
<feBlend mode="normal" in2="shape" result="effect2_innerShadow_220_58"/>
<feColorMatrix in="SourceAlpha" type="matrix" values="0 0 0 0 0 0 0 0 0 0 0 0 0 0 0 0 0 0 127 0" result="hardAlpha"/>
<feOffset dx="0.732128" dy="0.732128"/>
<feGaussianBlur stdDeviation="0.549096"/>
<feComposite in2="hardAlpha" operator="arithmetic" k2="-1" k3="1"/>
<feColorMatrix type="matrix" values="0 0 0 0 0.979145 0 0 0 0 0.99749 0 0 0 0 1 0 0 0 0.65 0"/>
<feBlend mode="normal" in2="effect2_innerShadow_220_58" result="effect3_innerShadow_220_58"/>
</filter>
<filter id="filter6_dii_220_58" x="92.6197" y="88.0112" width="9.63551" height="9.97126" filterUnits="userSpaceOnUse" color-interpolation-filters="sRGB">
<feFlood flood-opacity="0" result="BackgroundImageFix"/>
<feColorMatrix in="SourceAlpha" type="matrix" values="0 0 0 0 0 0 0 0 0 0 0 0 0 0 0 0 0 0 127 0" result="hardAlpha"/>
<feOffset dy="0.564251"/>
<feGaussianBlur stdDeviation="0.846377"/>
<feComposite in2="hardAlpha" operator="out"/>
<feColorMatrix type="matrix" values="0 0 0 0 0.710026 0 0 0 0 0.71778 0 0 0 0 0.758485 0 0 0 0.25 0"/>
<feBlend mode="normal" in2="BackgroundImageFix" result="effect1_dropShadow_220_58"/>
<feBlend mode="normal" in="SourceGraphic" in2="effect1_dropShadow_220_58" result="shape"/>
<feColorMatrix in="SourceAlpha" type="matrix" values="0 0 0 0 0 0 0 0 0 0 0 0 0 0 0 0 0 0 127 0" result="hardAlpha"/>
<feOffset dx="-1.46426" dy="-1.46426"/>
<feGaussianBlur stdDeviation="0.732128"/>
<feComposite in2="hardAlpha" operator="arithmetic" k2="-1" k3="1"/>
<feColorMatrix type="matrix" values="0 0 0 0 0.359191 0 0 0 0 0.655925 0 0 0 0 0.870801 0 0 0 0.17 0"/>
<feBlend mode="normal" in2="shape" result="effect2_innerShadow_220_58"/>
<feColorMatrix in="SourceAlpha" type="matrix" values="0 0 0 0 0 0 0 0 0 0 0 0 0 0 0 0 0 0 127 0" result="hardAlpha"/>
<feOffset dx="0.732128" dy="0.732128"/>
<feGaussianBlur stdDeviation="0.549096"/>
<feComposite in2="hardAlpha" operator="arithmetic" k2="-1" k3="1"/>
<feColorMatrix type="matrix" values="0 0 0 0 0.979145 0 0 0 0 0.99749 0 0 0 0 1 0 0 0 0.65 0"/>
<feBlend mode="normal" in2="effect2_innerShadow_220_58" result="effect3_innerShadow_220_58"/>
</filter>
<filter id="filter7_dii_220_58" x="106.682" y="88.0112" width="9.63551" height="9.97126" filterUnits="userSpaceOnUse" color-interpolation-filters="sRGB">
<feFlood flood-opacity="0" result="BackgroundImageFix"/>
<feColorMatrix in="SourceAlpha" type="matrix" values="0 0 0 0 0 0 0 0 0 0 0 0 0 0 0 0 0 0 127 0" result="hardAlpha"/>
<feOffset dy="0.564251"/>
<feGaussianBlur stdDeviation="0.846377"/>
<feComposite in2="hardAlpha" operator="out"/>
<feColorMatrix type="matrix" values="0 0 0 0 0.710026 0 0 0 0 0.71778 0 0 0 0 0.758485 0 0 0 0.25 0"/>
<feBlend mode="normal" in2="BackgroundImageFix" result="effect1_dropShadow_220_58"/>
<feBlend mode="normal" in="SourceGraphic" in2="effect1_dropShadow_220_58" result="shape"/>
<feColorMatrix in="SourceAlpha" type="matrix" values="0 0 0 0 0 0 0 0 0 0 0 0 0 0 0 0 0 0 127 0" result="hardAlpha"/>
<feOffset dx="-1.46426" dy="-1.46426"/>
<feGaussianBlur stdDeviation="0.732128"/>
<feComposite in2="hardAlpha" operator="arithmetic" k2="-1" k3="1"/>
<feColorMatrix type="matrix" values="0 0 0 0 0.359191 0 0 0 0 0.655925 0 0 0 0 0.870801 0 0 0 0.17 0"/>
<feBlend mode="normal" in2="shape" result="effect2_innerShadow_220_58"/>
<feColorMatrix in="SourceAlpha" type="matrix" values="0 0 0 0 0 0 0 0 0 0 0 0 0 0 0 0 0 0 127 0" result="hardAlpha"/>
<feOffset dx="0.732128" dy="0.732128"/>
<feGaussianBlur stdDeviation="0.549096"/>
<feComposite in2="hardAlpha" operator="arithmetic" k2="-1" k3="1"/>
<feColorMatrix type="matrix" values="0 0 0 0 0.979145 0 0 0 0 0.99749 0 0 0 0 1 0 0 0 0.65 0"/>
<feBlend mode="normal" in2="effect2_innerShadow_220_58" result="effect3_innerShadow_220_58"/>
</filter>
</defs>
</svg>
